<svg viewBox="0 0 207 208" fill="none" xmlns="http://www.w3.org/2000/svg">
  <path
    d="M138.5 108.5a5.004 5.004 0 0 1-1.464 3.536 5.004 5.004 0 0 1-3.536 1.464h-60a5.002 5.002 0 0 1-5-5v-30a5 5 0 0 1 5-5h5.86a15 15 0 0 0 10.6-4.395l4.15-4.14a5 5 0 0 1 3.525-1.465h11.72a5 5 0 0 1 3.535 1.465l4.14 4.14a14.994 14.994 0 0 0 10.61 4.395h5.86a5.002 5.002 0 0 1 5 5v30Zm-65-40a10 10 0 0 0-10 10v30a10 10 0 0 0 10 10h60a10.001 10.001 0 0 0 10-10v-30a10.002 10.002 0 0 0-10-10h-5.86a10 10 0 0 1-7.07-2.93l-4.14-4.14a10 10 0 0 0-7.07-2.93H97.64a10 10 0 0 0-7.07 2.93l-4.14 4.14a10 10 0 0 1-7.07 2.93H73.5Z"
    fill="#E8E9EA" />
  <path
    d="M103.5 103.5a12.5 12.5 0 1 1 0-25 12.5 12.5 0 0 1 0 25Zm0 5a17.5 17.5 0 1 0-.001-35 17.5 17.5 0 0 0 .001 35ZM78.5 81a2.5 2.5 0 1 1-5 0 2.5 2.5 0 0 1 5 0Zm-43.8 61.698h.992c.85-1.552 1.562-3.296 2.136-5.229a28.937 28.937 0 0 0 1.107-5.819h6.636v11.048h1.661v5.344h-2.021V144.5h-8.49v3.542h-2.022v-5.344Zm5.993-9.228c-.128 1.33-.457 2.874-.984 4.632-.527 1.752-1.128 3.284-1.802 4.596h5.564v-9.228h-2.778Zm17.025 6.152c0 1.588-.408 2.827-1.222 3.718-.814.89-1.948 1.336-3.401 1.336-.908 0-1.711-.205-2.408-.615-.698-.411-1.234-.999-1.609-1.767-.375-.768-.562-1.658-.562-2.672 0-1.576.404-2.807 1.212-3.691.81-.885 1.949-1.327 3.42-1.327 1.406 0 2.519.454 3.34 1.362.82.902 1.23 2.121 1.23 3.656Zm-7.075 0c0 2.244.829 3.366 2.487 3.366 1.64 0 2.46-1.122 2.46-3.366 0-2.221-.825-3.331-2.478-3.331-.867 0-1.497.287-1.89.861-.386.575-.58 1.398-.58 2.47Zm8.894-.958c0-2.168.366-3.835 1.099-5.001.738-1.166 1.91-1.916 3.515-2.25a81.84 81.84 0 0 1 4.193-.721l.29 1.82c-1.922.293-3.328.521-4.219.685-.92.17-1.585.548-1.995 1.134-.404.586-.639 1.468-.703 2.646h.132a3.33 3.33 0 0 1 1.31-1.125 3.813 3.813 0 0 1 1.73-.405c1.196 0 2.128.378 2.796 1.134.668.756 1.001 1.816 1.001 3.182 0 1.564-.407 2.774-1.221 3.63-.809.855-1.93 1.283-3.366 1.283-1.424 0-2.54-.528-3.349-1.582-.809-1.055-1.213-2.532-1.213-4.43Zm4.702 4.324c1.535 0 2.303-1.008 2.303-3.023 0-1.945-.694-2.918-2.083-2.918-.38 0-.75.082-1.107.246a4.044 4.044 0 0 0-.994.65c-.298.27-.53.548-.694.835 0 1.383.22 2.432.66 3.147.439.709 1.077 1.063 1.915 1.063ZM77.15 144.5l-.413-1.354h-.07c-.469.592-.94.997-1.415 1.213-.475.211-1.084.317-1.828.317-.955 0-1.702-.258-2.241-.774-.534-.515-.8-1.245-.8-2.188 0-1.002.372-1.758 1.116-2.268.744-.509 1.878-.788 3.401-.835l1.68-.052v-.519c0-.621-.147-1.084-.44-1.389-.287-.31-.736-.465-1.345-.465-.498 0-.976.073-1.433.219-.457.147-.896.32-1.318.519l-.668-1.477a7.091 7.091 0 0 1 1.731-.624 7.842 7.842 0 0 1 1.776-.219c1.236 0 2.168.269 2.795.808.633.539.949 1.386.949 2.54v6.548H77.15Zm-3.076-1.406c.75 0 1.35-.208 1.802-.624.457-.422.685-1.011.685-1.767v-.844l-1.248.053c-.972.035-1.681.199-2.127.492-.439.287-.659.73-.659 1.327 0 .434.13.771.387 1.011.258.235.645.352 1.16.352Zm15.873-5.827c0 1.148-.67 1.842-2.012 2.083v.07c.75.088 1.324.325 1.722.712.399.387.598.888.598 1.503 0 .92-.352 1.629-1.055 2.127-.697.492-1.714.738-3.05.738h-4.64v-9.721h4.623c2.543 0 3.814.829 3.814 2.488Zm-1.81 4.245c0-.469-.182-.8-.545-.993-.364-.2-.908-.299-1.635-.299h-2.382v2.751h2.435c1.418 0 2.127-.487 2.127-1.459Zm-.255-4.07c0-.386-.153-.665-.457-.835-.299-.175-.747-.263-1.345-.263h-2.505v2.338h2.197c.692 0 1.216-.088 1.574-.264.357-.182.536-.507.536-.976Zm6.486-2.663v4.984c0 .58-.047 1.432-.14 2.557l4.878-7.541h2.522v9.721h-1.986v-4.896c0-.269.014-.706.044-1.309.035-.604.064-1.043.087-1.318l-4.86 7.523h-2.522v-9.721h1.977Zm17.508 0v1.617h-3.164v8.104h-2.074v-8.104h-3.164v-1.617h8.402Zm3.937 3.885h2.435c2.713 0 4.069.938 4.069 2.813 0 .99-.345 1.743-1.037 2.258-.691.51-1.702.765-3.032.765h-4.5v-9.721h2.065v3.885Zm4.43 2.865c0-.486-.184-.826-.554-1.019-.369-.194-.89-.29-1.564-.29h-2.312v2.751h2.347c.68 0 1.195-.123 1.547-.369.357-.247.536-.604.536-1.073Zm20.417-1.889c0 1.459-.442 2.622-1.327 3.489-.879.867-2.098 1.359-3.656 1.476v4.219h-1.96v-4.219c-1.541-.117-2.763-.615-3.665-1.494-.897-.884-1.345-2.042-1.345-3.471 0-1.483.437-2.652 1.31-3.507.873-.862 2.112-1.348 3.717-1.459v-3.85h1.943v3.85c1.558.14 2.777.647 3.656 1.52.885.873 1.327 2.022 1.327 3.446Zm-9.808 0c0 .961.24 1.734.72 2.32.481.586 1.201.929 2.162 1.028v-6.697c-.966.111-1.69.457-2.171 1.037-.474.58-.711 1.351-.711 2.312Zm7.672 0c0-.95-.24-1.711-.72-2.286-.475-.574-1.184-.916-2.127-1.028v6.662c.955-.111 1.667-.457 2.135-1.037.475-.586.712-1.356.712-2.311Zm13.149-.018c0 1.588-.407 2.827-1.222 3.718-.814.89-1.948 1.336-3.401 1.336-.908 0-1.711-.205-2.408-.615-.698-.411-1.234-.999-1.609-1.767-.375-.768-.562-1.658-.562-2.672 0-1.576.404-2.807 1.213-3.691.808-.885 1.948-1.327 3.419-1.327 1.406 0 2.519.454 3.339 1.362.821.902 1.231 2.121 1.231 3.656Zm-7.075 0c0 2.244.829 3.366 2.487 3.366 1.641 0 2.461-1.122 2.461-3.366 0-2.221-.826-3.331-2.479-3.331-.867 0-1.497.287-1.889.861-.387.575-.58 1.398-.58 2.47Zm16.585-4.843v1.617h-3.164v8.104h-2.075v-8.104h-3.164v-1.617h8.403Zm10.318 4.843c0 1.588-.407 2.827-1.222 3.718-.814.89-1.948 1.336-3.401 1.336-.908 0-1.711-.205-2.408-.615-.698-.411-1.234-.999-1.609-1.767-.375-.768-.562-1.658-.562-2.672 0-1.576.404-2.807 1.213-3.691.808-.885 1.948-1.327 3.419-1.327 1.406 0 2.519.454 3.34 1.362.82.902 1.23 2.121 1.23 3.656Zm-7.075 0c0 2.244.829 3.366 2.487 3.366 1.641 0 2.461-1.122 2.461-3.366 0-2.221-.826-3.331-2.478-3.331-.868 0-1.498.287-1.89.861-.387.575-.58 1.398-.58 2.47Z"
    fill="#E8E9EA" />
  <rect x="2" y="2.5" width="203" height="203" rx="2" stroke="#E8E9EA" stroke-width="4" stroke-linecap="square"
    stroke-linejoin="round" stroke-dasharray="12 12" /></svg>
