<svg width="20" height="16" viewBox="0 0 20 16" fill="none" xmlns="http://www.w3.org/2000/svg">
<path fill-rule="evenodd" clip-rule="evenodd" d="M1.5 3.5C2.32843 3.5 3 2.82843 3 2C3 1.17157 2.32843 0.5 1.5 0.5C0.671573 0.5 0 1.17157 0 2C0 2.82843 0.671573 3.5 1.5 3.5ZM5 1.25H20V2.75H5V1.25ZM20 7.25H5V8.75H20V7.25ZM20 13.25H5V14.75H20V13.25ZM3 8C3 8.82843 2.32843 9.5 1.5 9.5C0.671573 9.5 0 8.82843 0 8C0 7.17157 0.671573 6.5 1.5 6.5C2.32843 6.5 3 7.17157 3 8ZM1.5 15.5C2.32843 15.5 3 14.8284 3 14C3 13.1716 2.32843 12.5 1.5 12.5C0.671573 12.5 0 13.1716 0 14C0 14.8284 0.671573 15.5 1.5 15.5Z" fill="white" fill-opacity="0.4"/>
</svg>
