<svg width="18" height="16" viewBox="0 0 18 16" fill="none" xmlns="http://www.w3.org/2000/svg">
<path d="M0 4.97831C0 2.24655 2.16494 0 4.87453 0C6.28971 0 7.51681 0.748552 8.36755 1.76904C8.60454 2.0533 8.8168 2.36357 8.99972 2.69262C9.18247 2.36365 9.39455 2.05344 9.63135 1.76922C10.4816 0.748632 11.7083 0 13.1236 0C15.8332 0 17.9981 2.24655 17.9981 4.97831C17.9981 7.40061 16.4893 9.54846 14.7652 11.3159C13.4435 12.6709 11.8908 13.902 10.5947 14.9297L10.5946 14.9298C10.1916 15.2493 9.8134 15.5492 9.47466 15.827C9.19814 16.0538 8.79997 16.0538 8.52345 15.827C8.18468 15.5491 7.80644 15.2493 7.40339 14.9297L7.40338 14.9297C6.10727 13.902 4.55461 12.6709 3.23286 11.3159C1.50876 9.54846 0 7.40061 0 4.97831Z" fill="#FF4747"/>
</svg>
