<svg width="20" height="15" viewBox="0 0 20 15" fill="none" xmlns="http://www.w3.org/2000/svg">
<path fill-rule="evenodd" clip-rule="evenodd" d="M7.5 3.5C7.5 4.60457 6.60457 5.5 5.5 5.5C4.39543 5.5 3.5 4.60457 3.5 3.5C3.5 2.39543 4.39543 1.5 5.5 1.5C6.60457 1.5 7.5 2.39543 7.5 3.5ZM5.5 7C7.17556 7 8.57612 5.82259 8.91946 4.25L20 4.25L20 2.75L8.91945 2.75C8.57612 1.17741 7.17556 0 5.5 0C3.82444 0 2.42388 1.17741 2.08054 2.75H0V4.25H2.08054C2.42388 5.82259 3.82444 7 5.5 7ZM11.0805 10.75L0 10.75V12.25L11.0805 12.25C11.4239 13.8226 12.8244 15 14.5 15C16.1756 15 17.5761 13.8226 17.9195 12.25H20V10.75H17.9195C17.5761 9.17741 16.1756 8 14.5 8C12.8244 8 11.4239 9.17741 11.0805 10.75ZM16.5 11.5C16.5 12.6046 15.6046 13.5 14.5 13.5C13.3954 13.5 12.5 12.6046 12.5 11.5C12.5 10.3954 13.3954 9.5 14.5 9.5C15.6046 9.5 16.5 10.3954 16.5 11.5Z" fill="#E8E9EA"/>
</svg>
