<svg width="21" height="18" viewBox="0 0 21 18" fill="none" xmlns="http://www.w3.org/2000/svg">
<path fill-rule="evenodd" clip-rule="evenodd" d="M16.9927 7.98301L16.016 8.34661V9.38874V15.0005C16.016 15.829 15.3445 16.5005 14.516 16.5005H13.5V16.5V11C13.5 9.89543 12.6046 9 11.5 9H9.5C8.39543 9 7.5 9.89543 7.5 11V16.5V16.5005H6.49273C5.66431 16.5005 4.99273 15.829 4.99273 15.0005V9.38874V8.34557L4.01478 7.98252L2.54584 7.43719L10.5021 1.61948L18.4548 7.43865L16.9927 7.98301ZM19.8481 8.52049L17.516 9.38874V15.0005C17.516 16.6574 16.1729 18.0005 14.516 18.0005H6.49273C4.83588 18.0005 3.49273 16.6574 3.49273 15.0005V9.38874L1.15219 8.51984C0.405137 8.24251 0.266719 7.24548 0.909967 6.77514L9.91198 0.192778C10.2636 -0.0643328 10.7412 -0.0642522 11.0927 0.192977L20.0897 6.77631C20.7324 7.24653 20.5944 8.24265 19.8481 8.52049ZM9.5 10.5H11.5C11.7761 10.5 12 10.7239 12 11V16.5H9V11C9 10.7239 9.22386 10.5 9.5 10.5Z" fill="#E8E9EA"/>
</svg>
