<svg width="197" height="50" viewBox="0 0 197 50" fill="none" xmlns="http://www.w3.org/2000/svg">
<g clip-path="url(#clip0_2244_479)">
<path d="M23.8699 49.9999H3.46893C1.99493 49.9999 1.12793 48.6829 1.12793 47.5319C1.12793 46.8509 1.40393 46.2339 1.85093 45.7869L10.7539 36.8839L23.8699 49.9999Z" fill="#FF4F12"/>
<path d="M3.46895 50C1.92795 50 0.00295116 48.768 0.00295116 46.319V18.892C0.00295116 15.186 -0.186049 12.579 2.46095 9.932L12.392 0L30.003 17.639L1.85095 45.787C1.40395 46.234 1.12795 46.85 1.12795 47.532C1.12795 48.683 1.99495 50 3.46895 50Z" fill="#7700FF"/>
<path d="M155.441 35.7641L162.285 43.5868H157.84L152.546 37.557V43.5868H148.862V28.9996H152.546V34.2937L157.751 28.9996H162.109L155.441 35.7641ZM45.1823 32.9412C47.872 32.9412 49.1006 31.6471 49.1006 29.706C49.1006 27.765 47.872 26.4709 45.1823 26.4709H39.8601V32.9412H45.1823ZM45.2996 23C49.9203 23 52.9617 25.3815 52.9617 29.705C52.9617 34.0286 49.9203 36.4111 45.2996 36.4111H39.8601V43.5868H36V23H45.2996ZM61.6741 40.528C63.8376 40.528 65.8559 38.97 65.8559 36.2932C65.8559 33.6164 63.8376 32.0583 61.6741 32.0583C59.5105 32.0583 57.4923 33.6174 57.4923 36.2932C57.4923 38.97 59.5105 40.528 61.6741 40.528ZM61.6741 28.5884C65.6514 28.5884 69.5987 31.1765 69.5987 36.2942C69.5987 41.4119 65.6514 43.999 61.6741 43.999C57.6967 43.999 53.7494 41.4119 53.7494 36.2942C53.7494 31.1765 57.6967 28.5884 61.6741 28.5884ZM79.0065 40.5291C76.7839 40.5291 75.1464 38.9115 75.1464 36.2942C75.1464 33.7061 76.842 32.0593 79.0065 32.0593C80.3223 32.0593 81.4627 32.6771 82.3696 34.0588L85.5283 32.2357C84.4751 29.9711 82.1943 28.5894 79.0366 28.5894C74.9129 28.5894 71.4045 31.6481 71.4045 36.2942C71.4045 40.9413 74.7386 44 79.0366 44C82.1361 44 84.2125 42.588 85.6746 40.0886L82.6332 38.4126C81.7553 39.6462 80.8194 40.5291 79.0065 40.5291ZM118.239 37.2647C118.064 39.5001 117.624 40 116.864 40C116.345 40 116.101 39.9425 115.745 39.8488L115.763 43.6231C115.763 43.6231 116.221 43.7642 117.069 43.7642C120.197 43.7642 121.368 41.7344 121.66 37.4119L122.011 32.3234H126.163V43.5576H129.848V28.9996H118.852L118.239 37.2647ZM111.443 34.3521C111.092 32.529 109.718 31.4113 107.671 31.4113C105.741 31.4113 104.279 32.7053 103.752 34.3521H111.443ZM107.787 28.5884C111.94 28.5884 114.864 31.6179 114.864 35.882V37.176H103.693C103.926 39.4114 105.505 40.8223 107.67 40.8223C109.629 40.8223 110.448 39.9697 111.355 38.8228L114.279 40.2932C112.817 42.7926 110.798 43.999 107.611 43.999C103.575 43.999 100.154 40.911 100.154 36.2932C100.155 31.6763 103.576 28.5884 107.787 28.5884ZM143.199 34.3521C142.848 32.529 141.473 31.4113 139.427 31.4113C137.497 31.4113 136.035 32.7053 135.508 34.3521H143.199ZM139.544 28.5884C143.697 28.5884 146.621 31.6179 146.621 35.882V37.176H135.449C135.683 39.4114 137.262 40.8223 139.427 40.8223C141.386 40.8223 142.205 39.9697 143.112 38.8228L146.036 40.2932C144.574 42.7926 142.555 43.999 139.368 43.999C135.332 43.999 131.911 40.911 131.911 36.2932C131.911 31.6763 135.332 28.5884 139.544 28.5884ZM86.82 32.2347H91.1481V43.5868H94.8329V32.2347H99.161V28.9996H86.82V32.2347ZM169.6 40.5291C171.764 40.5291 173.782 38.971 173.782 36.2942C173.782 33.6174 171.764 32.0593 169.6 32.0593C167.437 32.0593 165.418 33.6184 165.418 36.2942C165.418 38.97 167.436 40.5291 169.6 40.5291ZM169.6 28.5884C173.578 28.5884 177.525 31.1765 177.525 36.2942C177.525 41.4119 173.578 44 169.6 44C165.623 44 161.676 41.4119 161.676 36.2942C161.676 31.1765 165.623 28.5884 169.6 28.5884ZM192.186 28.9976L188.186 39.2139L184.187 28.9976H179.371V43.5586H182.873V34.34L186.755 43.5586H189.615L193.498 34.34V43.5586H197V28.9976H192.186Z" fill="white"/>
</g>
<defs>
<clipPath id="clip0_2244_479">
<rect width="197" height="50" fill="white"/>
</clipPath>
</defs>
</svg>
