<svg width="146" height="2" viewBox="0 0 146 2" fill="none" xmlns="http://www.w3.org/2000/svg">
<path d="M0 0H20V2H0V0Z" fill="#9466FF"/>
<path d="M24 0H42V2H24V0Z" fill="#9466FF"/>
<path d="M46 0H62V2H46V0Z" fill="#9466FF"/>
<path d="M66 0H80V2H66V0Z" fill="#9466FF"/>
<path d="M84 0H96V2H84V0Z" fill="#9466FF"/>
<path d="M100 0H110V2H100V0Z" fill="#9466FF"/>
<path d="M114 0H122V2H114V0Z" fill="#9466FF"/>
<path d="M126 0H132V2H126V0Z" fill="#9466FF"/>
<path d="M136 0H140V2H136V0Z" fill="#9466FF"/>
<path d="M144 0H146V2H144V0Z" fill="#9466FF"/>
</svg>
