<svg width="42" height="12" viewBox="0 0 42 12" fill="none" xmlns="http://www.w3.org/2000/svg">
<path d="M23.6931 1.72495L21.1501 7.20495H20.8931V0.543945H17.2611V11.7439H20.2731C21.0901 11.7439 21.8161 11.2739 22.1651 10.5479L24.7221 5.08395H24.9801V11.7439H28.6121V0.544945H25.5551C24.7681 0.544945 24.0261 1.01395 23.6931 1.72495ZM10.1931 2.01295L8.69414 7.20395H8.43714L6.92314 2.01295C6.79856 1.58819 6.5394 1.21539 6.18466 0.950643C5.82992 0.685893 5.39878 0.543519 4.95614 0.544945H1.36914V11.7449H5.00014V5.08495H5.25814L7.34614 11.7449H9.77014L11.8581 5.08495H12.1161V11.7449H15.7481V0.544945H12.1601C11.2521 0.544945 10.4351 1.13495 10.1931 2.01295ZM30.1261 5.53995V11.7449H33.7581V8.11195H37.6631C38.4648 8.1144 39.2475 7.86829 39.9035 7.4075C40.5595 6.94671 41.0565 6.2939 41.3261 5.53895L30.1261 5.53995Z" fill="#319B42"/>
<path d="M37.5566 0.544922H29.4746C29.9746 3.20792 32.3046 5.08492 35.1046 5.08492H41.3856C41.4348 4.82545 41.4603 4.56202 41.4616 4.29792C41.4616 2.13392 39.7216 0.544922 37.5566 0.544922Z" fill="url(#paint0_linear_1474_96970)"/>
<defs>
<linearGradient id="paint0_linear_1474_96970" x1="29.4746" y1="2.81492" x2="41.4616" y2="2.81492" gradientUnits="userSpaceOnUse">
<stop stop-color="#00A3E1"/>
<stop offset="0.304" stop-color="#009ADD"/>
<stop offset="0.799" stop-color="#0082D4"/>
<stop offset="1" stop-color="#0076CF"/>
</linearGradient>
</defs>
</svg>
