<svg width="15" height="4" viewBox="0 0 15 4" fill="none" xmlns="http://www.w3.org/2000/svg">
<path fill-rule="evenodd" clip-rule="evenodd" d="M13.5 3.5C12.6716 3.5 12 2.82843 12 2C12 1.17157 12.6716 0.5 13.5 0.5C14.3284 0.5 15 1.17157 15 2C15 2.82843 14.3284 3.5 13.5 3.5ZM7.5 3.5C6.67157 3.5 6 2.82843 6 2C6 1.17157 6.67157 0.5 7.5 0.5C8.32843 0.5 9 1.17157 9 2C9 2.82843 8.32843 3.5 7.5 3.5ZM-6.55671e-08 2C-1.01779e-07 2.82843 0.671573 3.5 1.5 3.5C2.32843 3.5 3 2.82843 3 2C3 1.17157 2.32843 0.499999 1.5 0.499999C0.671573 0.499999 -2.93554e-08 1.17157 -6.55671e-08 2Z" fill="#E8E9EA"/>
</svg>
