<svg width="20" height="20" viewBox="0 0 20 20" fill="none" xmlns="http://www.w3.org/2000/svg">
<path fill-rule="evenodd" clip-rule="evenodd" d="M15.3266 16.6244C17.2617 15.0664 18.5 12.6778 18.5 10C18.5 5.30558 14.6944 1.5 10 1.5C5.30558 1.5 1.5 5.30558 1.5 10C1.5 12.6778 2.73826 15.0664 4.67343 16.6244C5.2842 14.2525 7.43744 12.5 10 12.5C12.5626 12.5 14.7158 14.2525 15.3266 16.6244ZM13.9712 17.5172C13.7328 15.5357 12.0457 14 10 14C7.95426 14 6.26721 15.5357 6.02884 17.5172C7.21409 18.1447 8.56555 18.5 10 18.5C11.4345 18.5 12.7859 18.1447 13.9712 17.5172ZM10 20C15.5228 20 20 15.5228 20 10C20 4.47715 15.5228 0 10 0C4.47715 0 0 4.47715 0 10C0 15.5228 4.47715 20 10 20ZM10 9.5C10.8284 9.5 11.5 8.82843 11.5 8C11.5 7.17157 10.8284 6.5 10 6.5C9.17157 6.5 8.5 7.17157 8.5 8C8.5 8.82843 9.17157 9.5 10 9.5ZM10 11C11.6569 11 13 9.65685 13 8C13 6.34315 11.6569 5 10 5C8.34315 5 7 6.34315 7 8C7 9.65685 8.34315 11 10 11Z" fill="#E8E9EA"/>
</svg>
