<svg width="24" height="24" viewBox="0 0 24 24" fill="none" xmlns="http://www.w3.org/2000/svg">
<path fill-rule="evenodd" clip-rule="evenodd" d="M12.7498 7L12.7498 4H11.2498V7H12.7498ZM18.4869 8.49525L19.9869 5.99525L18.7007 5.2235L17.2007 7.7235L18.4869 8.49525ZM4.01291 5.99525L5.51291 8.49525L6.79915 7.7235L5.29915 5.2235L4.01291 5.99525ZM4.67903 14.0007C6.33005 16.1178 8.98814 17.5009 11.9988 17.5009C15.0098 17.5009 17.6681 16.1176 19.3191 14.0001C18.2829 12.6715 16.8502 11.632 15.1826 11.042C15.3862 11.4859 15.4998 11.9797 15.4998 12.5C15.4998 14.433 13.9328 16 11.9998 16C10.0668 16 8.49979 14.433 8.49979 12.5C8.49979 11.9795 8.61341 11.4855 8.8172 11.0416C7.14882 11.6316 5.71544 12.6715 4.67903 14.0007ZM20.8665 13.5758C18.9709 10.8131 15.7009 9.00011 11.9996 9H11.9993C8.29751 9 5.02716 10.8133 3.13155 13.5765C2.95614 13.8322 2.95615 14.1694 3.13158 14.4251C5.02727 17.1878 8.29738 19.0009 11.9988 19.0009C15.7006 19.0009 18.9709 17.1875 20.8665 14.4244C21.0419 14.1687 21.0419 13.8314 20.8665 13.5758ZM11.9998 14.5C13.1044 14.5 13.9998 13.6046 13.9998 12.5C13.9998 11.3954 13.1044 10.5 11.9998 10.5C10.8952 10.5 9.99979 11.3954 9.99979 12.5C9.99979 13.6046 10.8952 14.5 11.9998 14.5Z" fill="#E8E9EA"/>
</svg>
