<svg width="40" height="20" viewBox="0 0 40 20" fill="none" xmlns="http://www.w3.org/2000/svg">
<path d="M0 4.35352L2.422 8.68268V11.3233L0.00283333 15.644L0 4.35352Z" fill="#5B57A2"/>
<path d="M9.29883 7.10725L11.5683 5.71625L16.213 5.71191L9.29883 9.94758V7.10725Z" fill="#D90751"/>
<path d="M9.28788 4.32783L9.30071 10.0595L6.87305 8.56782V0L9.28804 4.32783H9.28788Z" fill="#FAB718"/>
<path d="M16.2149 5.71183L11.57 5.71616L9.28788 4.32783L6.87305 0L16.2147 5.71183H16.2149Z" fill="#ED6F26"/>
<path d="M9.30071 15.668V12.8872L6.87305 11.4238L6.87438 20.0002L9.30071 15.668Z" fill="#63B22F"/>
<path d="M11.5633 14.2897L2.42183 8.68268L0 4.35352L16.2038 14.284L11.5632 14.2897H11.5633Z" fill="#1487C9"/>
<path d="M6.87305 20.0003L9.29904 15.6682L11.5629 14.2898L16.2034 14.2842L6.87305 20.0003Z" fill="#017F36"/>
<path d="M0.00195312 15.6439L6.89078 11.4239L4.57478 10.0029L2.42112 11.3233L0.00195312 15.6439Z" fill="#984995"/>
<g clip-path="url(#clip0_1474_96988)">
<path fill-rule="evenodd" clip-rule="evenodd" d="M26.4799 13.0802C28.0429 13.0802 29.2035 12.1219 29.2035 10.6691C29.2035 9.26285 28.3472 8.34993 26.916 8.34993C26.2555 8.34993 25.7105 8.58235 25.3 8.98356C25.398 8.15446 26.0992 7.54899 26.8712 7.54899C27.0494 7.54899 28.3907 7.54622 28.3907 7.54622L29.1492 6.09473C29.1492 6.09473 27.4652 6.13314 26.6824 6.13314C24.8937 6.16423 23.6855 7.79004 23.6855 9.76464C23.6855 12.0653 24.8638 13.0802 26.4799 13.0802ZM26.4894 9.63558C27.0697 9.63558 27.472 10.0169 27.472 10.6689C27.472 11.2557 27.1146 11.7393 26.4894 11.7406C25.8913 11.7406 25.489 11.2925 25.489 10.6789C25.489 10.0267 25.8913 9.63558 26.4894 9.63558ZM35.2388 8.01579V12.9054H33.4928V9.47542H31.8117V12.9054H30.0657V8.01546L35.2388 8.01579ZM21.2362 11.5511C21.852 11.5062 22.2643 11.2684 22.2643 11.2684L22.9105 12.4639C22.4967 12.7296 21.8177 12.9025 21.3255 12.9207C19.5647 12.9531 18.3398 11.8817 18.3398 10.3206C18.3398 8.77929 19.643 7.68229 21.3255 7.68229C21.9922 7.68229 22.5653 7.86116 22.9957 8.18733C22.9051 8.34782 22.782 8.57015 22.665 8.78287L22.4775 9.12435L22.307 9.43619C22.307 9.43619 21.687 9.11132 21.2183 9.11132C20.454 9.11132 19.8974 9.5555 19.8974 10.3304C19.8974 11.125 20.5282 11.5721 21.2362 11.5511ZM19.8979 16.1961C19.8446 16.2641 19.7744 16.3156 19.6903 16.3502C19.6038 16.3854 19.5115 16.4033 19.4182 16.4028C19.3255 16.4041 19.2333 16.3887 19.1461 16.3572C19.0677 16.3288 18.9961 16.2843 18.9357 16.2269C18.8761 16.1693 18.8293 16.0998 18.7984 16.0228C18.7649 15.9386 18.7482 15.8486 18.7493 15.758C18.7493 15.668 18.7647 15.5846 18.7969 15.5057C18.8277 15.4266 18.8726 15.3587 18.9287 15.3017C18.9542 15.2754 18.9819 15.2518 19.0117 15.2306L19.0299 15.2183C19.0491 15.2057 19.069 15.194 19.0897 15.1833L19.1119 15.1722L19.1279 15.1645C19.2051 15.1312 19.2892 15.1131 19.3818 15.1131C19.4814 15.1131 19.5739 15.1256 19.658 15.1505C19.7112 15.1662 19.7592 15.1885 19.8022 15.2174C19.8274 15.2345 19.8508 15.2539 19.8726 15.2755L19.7703 15.4489C19.7207 15.404 19.6624 15.3699 19.599 15.3488C19.5388 15.3294 19.4758 15.3197 19.4126 15.3198C19.3565 15.3198 19.3032 15.3309 19.2514 15.3517C19.2004 15.3722 19.1536 15.4023 19.1139 15.4406C19.0732 15.4796 19.0413 15.527 19.0199 15.5793C18.9961 15.6331 18.9849 15.6929 18.9849 15.7594C18.9849 15.8273 18.9974 15.8883 19.0212 15.9411C19.0452 15.9951 19.0774 16.041 19.1181 16.0797C19.1587 16.1186 19.2064 16.1476 19.2611 16.1671C19.2834 16.1756 19.3062 16.1823 19.3294 16.1872C19.3634 16.1943 19.3985 16.1977 19.4351 16.1977C19.5107 16.1977 19.5796 16.1823 19.6384 16.1531C19.6693 16.1382 19.6985 16.1203 19.7257 16.0996C19.7498 16.0812 19.7722 16.0607 19.7927 16.0382L19.8979 16.1961ZM20.1868 16.3737V15.1395H20.4084V16.0591L21.1292 15.1395H21.3509V16.3738H21.1292V15.4544L20.4084 16.3738L20.1868 16.3737ZM22.8193 16.1961C22.7647 16.2648 22.6932 16.3179 22.6117 16.3502C22.5623 16.3703 22.5107 16.3848 22.4582 16.3934C22.4191 16.3997 22.3794 16.403 22.3396 16.4028C22.3024 16.4033 22.2653 16.4012 22.2286 16.3963C22.1737 16.3891 22.1198 16.3761 22.0675 16.3572C22.0496 16.3507 22.0321 16.3434 22.0149 16.3353C21.9941 16.3253 21.974 16.3143 21.9544 16.3022C21.9196 16.2806 21.887 16.2554 21.8571 16.2269C21.7974 16.1693 21.7506 16.0998 21.7197 16.0228C21.6863 15.9386 21.6695 15.8486 21.6706 15.758C21.6706 15.668 21.686 15.5846 21.7183 15.5057C21.7493 15.4266 21.794 15.3587 21.8501 15.3017C21.9062 15.2435 21.9735 15.1992 22.0492 15.1645C22.1291 15.1294 22.2157 15.1118 22.3031 15.1131C22.361 15.1131 22.4164 15.1173 22.4692 15.1258L22.5002 15.1312C22.512 15.1335 22.5236 15.1361 22.5351 15.1388L22.5555 15.1439L22.5794 15.1505C22.6636 15.1754 22.735 15.2171 22.794 15.2755L22.6916 15.4489C22.6422 15.404 22.5839 15.3699 22.5206 15.3488C22.5054 15.3439 22.49 15.3395 22.4744 15.3358C22.4638 15.3333 22.453 15.3312 22.4422 15.3293C22.432 15.3275 22.4218 15.3258 22.4115 15.3245L22.3889 15.3221C22.3707 15.3205 22.3524 15.3197 22.3341 15.3198C22.2227 15.3201 22.1156 15.3634 22.0352 15.4406C22.0248 15.4508 22.015 15.4614 22.0057 15.4726C21.9947 15.4858 21.9845 15.4998 21.9753 15.5143C21.9621 15.535 21.9507 15.5566 21.9412 15.5793C21.936 15.591 21.9315 15.603 21.9275 15.6154C21.9228 15.6295 21.919 15.644 21.9159 15.6588C21.9094 15.6906 21.9062 15.7239 21.9062 15.7594C21.9062 15.7915 21.909 15.8219 21.9145 15.8507C21.9177 15.8678 21.9219 15.8841 21.9269 15.8999C21.9315 15.9142 21.9368 15.9279 21.9427 15.9411C21.9578 15.9752 21.9762 16.0062 21.9979 16.034C22.0106 16.0503 22.0244 16.0654 22.0394 16.0797C22.0801 16.1186 22.1279 16.1476 22.1825 16.1671C22.2372 16.1865 22.2948 16.1977 22.3564 16.1977C22.3822 16.1977 22.4071 16.196 22.4311 16.1924C22.4774 16.1857 22.5201 16.1724 22.5597 16.1531C22.618 16.125 22.6704 16.0859 22.714 16.0382L22.8193 16.1961ZM22.9342 15.1395H24.0702V15.3587H23.613V16.3737H23.3914V15.3587H22.9342V15.1395ZM25.3227 16.2392C25.261 16.2946 25.1895 16.3349 25.1053 16.3613C25.0242 16.3875 24.9395 16.401 24.8543 16.4015C24.8201 16.402 24.786 16.4002 24.7522 16.3963C24.6929 16.3893 24.6344 16.3758 24.578 16.3558C24.4952 16.3253 24.4252 16.2822 24.3677 16.2254C24.3089 16.1678 24.263 16.0983 24.233 16.0216C24.2021 15.9425 24.1853 15.8538 24.1853 15.7567C24.1845 15.6706 24.1992 15.5851 24.2288 15.5044C24.2558 15.4284 24.2983 15.359 24.3535 15.3004C24.3799 15.2733 24.4087 15.2485 24.4395 15.2267C24.4753 15.2015 24.5137 15.1802 24.5542 15.1631C24.6004 15.1439 24.6505 15.1297 24.7046 15.1212C24.7439 15.1151 24.7853 15.1118 24.829 15.1118C24.8547 15.1116 24.8804 15.1131 24.9057 15.1162C24.9286 15.119 24.9514 15.123 24.9739 15.1282C25.0013 15.1348 25.0284 15.1432 25.0548 15.1535C25.1236 15.179 25.1866 15.2181 25.24 15.2685C25.2537 15.2817 25.2665 15.2954 25.2786 15.3099C25.2886 15.3218 25.2982 15.334 25.3071 15.3467C25.3209 15.366 25.3334 15.3865 25.3445 15.4075C25.3513 15.4206 25.3576 15.4339 25.3634 15.4474C25.3761 15.4761 25.3861 15.5058 25.3936 15.5369C25.4043 15.581 25.4097 15.6279 25.4097 15.6777C25.4097 15.7345 25.4055 15.783 25.3957 15.826H24.4364C24.4462 15.9427 24.4897 16.034 24.5695 16.0993C24.6495 16.1645 24.7505 16.1963 24.8725 16.1963C24.9141 16.1963 24.9539 16.193 24.9915 16.1865C25.0276 16.1803 25.0618 16.1712 25.0942 16.159C25.16 16.1339 25.2147 16.1035 25.2554 16.0674L25.3227 16.2392ZM24.8192 15.3185C24.7042 15.3185 24.613 15.3489 24.5443 15.4113C24.4764 15.4726 24.4331 15.5565 24.4224 15.6471H25.1797C25.174 15.5446 25.1405 15.4642 25.0773 15.4059C25.0668 15.3961 25.0557 15.3874 25.0439 15.3794C25.0329 15.3717 25.0212 15.3649 25.009 15.3587C24.9998 15.354 24.9902 15.3498 24.9803 15.3459C24.9335 15.3276 24.8796 15.3185 24.8192 15.3185ZM25.7112 15.1395H25.9132L26.3928 15.7511L26.8472 15.1395H27.0435V16.3738H26.822V15.4738L26.39 16.0465H26.3815L25.9329 15.4736V16.3737H25.7112V15.1395ZM27.5496 15.1767C27.581 15.1634 27.6134 15.1523 27.6465 15.1437C27.718 15.1243 27.7923 15.1133 27.871 15.1133C27.9476 15.1133 28.0144 15.1216 28.0713 15.1382C28.1093 15.1492 28.1429 15.1641 28.1719 15.1824C28.1997 15.1999 28.2233 15.2207 28.2427 15.2449C28.2739 15.2832 28.2982 15.3286 28.3156 15.381C28.338 15.4486 28.3491 15.5277 28.3491 15.6182V16.3753H28.1417V16.2158C28.1051 16.263 28.0547 16.3045 27.9914 16.3406C27.9285 16.3766 27.8456 16.3947 27.7419 16.3947C27.6667 16.3947 27.6011 16.3805 27.5452 16.3522C27.533 16.346 27.5213 16.3392 27.51 16.3317C27.5024 16.3265 27.4949 16.321 27.4876 16.3153C27.4796 16.3089 27.4718 16.3021 27.4642 16.2949C27.3941 16.2283 27.359 16.1339 27.359 16.0133C27.3583 15.9552 27.3708 15.8979 27.3955 15.8454C27.4186 15.7975 27.4521 15.7554 27.4936 15.7222C27.5343 15.6888 27.5848 15.6637 27.6436 15.6471C27.6553 15.6439 27.6671 15.6408 27.6789 15.638L27.6968 15.6341L27.717 15.6305C27.7534 15.6242 27.7911 15.6208 27.8303 15.6208C27.884 15.6214 27.9375 15.6269 27.9901 15.6375C28.0446 15.647 28.0963 15.6683 28.1417 15.7C28.1417 15.6754 28.1411 15.6517 28.14 15.6287L28.1378 15.595C28.1363 15.5768 28.1343 15.5591 28.1318 15.5418C28.1248 15.4933 28.1121 15.4518 28.0925 15.4184C28.0832 15.4028 28.0722 15.3883 28.0592 15.3756C28.0531 15.3696 28.0465 15.3639 28.0395 15.3587C28.0348 15.3553 28.0299 15.3519 28.0246 15.3488C28.019 15.3454 28.0132 15.3423 28.007 15.3393C27.9691 15.32 27.92 15.31 27.8583 15.31C27.7812 15.31 27.7166 15.3185 27.6662 15.3366L27.6393 15.3465L27.6166 15.3551L27.59 15.366C27.5649 15.3766 27.5398 15.388 27.5146 15.4004L27.4558 15.2254C27.4858 15.2069 27.5172 15.1906 27.5496 15.1767ZM27.8192 16.1963C27.9005 16.1963 27.9665 16.1798 28.017 16.1437C28.0625 16.1134 28.104 16.0775 28.1403 16.0368V15.88C28.1158 15.8625 28.0897 15.8478 28.0619 15.8359C28.0464 15.8293 28.0303 15.8236 28.0138 15.8188C28.0023 15.8156 27.9906 15.8127 27.9787 15.81C27.965 15.8071 27.951 15.8048 27.9367 15.803C27.912 15.8 27.8864 15.7983 27.8599 15.7983C27.8262 15.7983 27.794 15.8024 27.7616 15.8107C27.7456 15.8146 27.73 15.82 27.715 15.8268C27.7016 15.8328 27.6885 15.84 27.6762 15.8483C27.6523 15.8649 27.6313 15.8857 27.6158 15.9121L27.6126 15.9178C27.6103 15.9222 27.6081 15.9266 27.6063 15.9311C27.6042 15.9362 27.6024 15.9414 27.6008 15.9468C27.5994 15.9516 27.5981 15.9567 27.5971 15.9619C27.5946 15.9744 27.5933 15.9878 27.5933 16.0021C27.5933 16.0604 27.6129 16.1076 27.6523 16.1435C27.675 16.1636 27.7032 16.178 27.7368 16.1867C27.7614 16.193 27.7889 16.1963 27.8192 16.1963ZM30.432 14.5988C30.3926 14.6501 30.3507 14.6847 30.3058 14.7054C30.2608 14.7262 30.2118 14.7402 30.1585 14.7513C30.1185 14.7596 30.0766 14.7672 30.0328 14.7752L29.9888 14.7834C29.9224 14.7956 29.8577 14.8166 29.7966 14.8457C29.7734 14.8556 29.7512 14.8677 29.7303 14.8815C29.7153 14.8914 29.701 14.9022 29.6874 14.9139L29.6711 14.9287L29.6611 14.9386L29.6508 14.9495C29.6432 14.9585 29.6359 14.9676 29.6289 14.9769C29.6149 14.9953 29.602 15.0143 29.5903 15.0342C29.5785 15.0542 29.5679 15.075 29.5583 15.0967C29.5343 15.1505 29.5162 15.2077 29.5035 15.2672C29.491 15.327 29.484 15.3851 29.4796 15.4419H29.4853C29.505 15.3976 29.5329 15.3587 29.5666 15.3239C29.6011 15.2887 29.6402 15.2585 29.683 15.2339C29.6924 15.2285 29.7018 15.2233 29.7114 15.2183C29.7222 15.2127 29.7332 15.2075 29.7444 15.2026C29.7699 15.1914 29.7963 15.182 29.8233 15.1743C29.8738 15.1605 29.9257 15.1535 29.979 15.1535C30.0311 15.1528 30.0829 15.1585 30.1334 15.1704C30.1628 15.1774 30.1918 15.1865 30.2201 15.1977C30.2899 15.2254 30.3526 15.2682 30.404 15.3227C30.4552 15.3784 30.4945 15.444 30.5189 15.5155C30.5456 15.5905 30.5596 15.675 30.5596 15.7677C30.5596 15.8538 30.5442 15.9355 30.512 16.0119C30.4987 16.0447 30.4827 16.0762 30.4643 16.1058C30.4402 16.1448 30.4119 16.1807 30.3801 16.213C30.3225 16.2716 30.2538 16.3182 30.1781 16.3502C30.0997 16.3836 30.0127 16.4017 29.9187 16.4017C29.8163 16.4017 29.7252 16.3836 29.6438 16.3476C29.5625 16.3117 29.4936 16.2615 29.4362 16.195C29.3787 16.1297 29.3354 16.0495 29.3044 15.9536C29.2735 15.8579 29.2581 15.7513 29.2581 15.6333C29.2581 15.5418 29.2637 15.4463 29.275 15.3463C29.286 15.2484 29.3081 15.1522 29.3408 15.0592C29.3731 14.9676 29.4208 14.8844 29.4812 14.811C29.5415 14.7375 29.6213 14.6794 29.721 14.6362L29.7427 14.6268C29.7534 14.6224 29.7641 14.6182 29.775 14.6142C29.7947 14.6071 29.8145 14.6006 29.8346 14.5947C29.8467 14.5913 29.8588 14.588 29.871 14.5851C29.8863 14.5814 29.9018 14.5781 29.9173 14.5753L29.994 14.5622L30.0351 14.555L30.0771 14.5475C30.1018 14.5433 30.1262 14.5376 30.1502 14.5304C30.1691 14.5249 30.1877 14.5185 30.2061 14.5114C30.2163 14.5075 30.2262 14.5024 30.2358 14.4967L30.2484 14.4886C30.271 14.4728 30.292 14.4517 30.3113 14.4254L30.432 14.5988ZM29.4952 15.675C29.4939 15.7482 29.5043 15.8213 29.5259 15.8913C29.5445 15.9505 29.5735 16.0058 29.6115 16.055C29.6478 16.0989 29.6933 16.1344 29.7448 16.159C29.7966 16.1839 29.8529 16.1964 29.9145 16.1964C29.9611 16.1964 30.0039 16.1901 30.0438 16.1772L30.0583 16.1724C30.0661 16.1696 30.0738 16.1665 30.0815 16.1631C30.13 16.1426 30.1738 16.1123 30.2104 16.0745C30.2471 16.0366 30.2757 15.9917 30.2947 15.9425C30.3141 15.8927 30.3255 15.8385 30.3255 15.779C30.3255 15.6584 30.2918 15.5584 30.223 15.4782C30.1999 15.4515 30.1736 15.4294 30.1437 15.4116C30.1192 15.397 30.0924 15.3854 30.0631 15.3768C30.022 15.3647 29.9763 15.3587 29.9257 15.3587C29.821 15.3579 29.7191 15.3926 29.6368 15.4572C29.6003 15.4865 29.5695 15.5197 29.5456 15.5571C29.5373 15.5695 29.5299 15.5823 29.5233 15.5957C29.518 15.6064 29.5132 15.6173 29.509 15.6284C29.5033 15.6435 29.4987 15.6592 29.4952 15.675ZM32.0378 15.1396H32.2595V16.374H32.0378V15.1396ZM31.101 15.1396H30.8793H30.878V16.3753H31.2805C31.3007 16.3753 31.3201 16.3747 31.3388 16.3735C31.3506 16.3729 31.362 16.3719 31.3733 16.3708C31.3834 16.3698 31.3933 16.3686 31.403 16.3672C31.449 16.3607 31.4902 16.3502 31.5273 16.3366C31.543 16.3307 31.5578 16.3245 31.572 16.3179L31.5902 16.3087L31.6045 16.3011C31.6146 16.2952 31.6243 16.2891 31.6335 16.2825C31.6394 16.2785 31.6451 16.2742 31.6506 16.27C31.6574 16.2646 31.6639 16.2591 31.6702 16.2534C31.6761 16.248 31.6818 16.2423 31.6872 16.2366C31.7265 16.195 31.756 16.1492 31.7729 16.0967C31.7836 16.0654 31.791 16.0342 31.7952 16.0024C31.7981 15.9805 31.7995 15.9582 31.7995 15.9355C31.7995 15.9237 31.7991 15.9119 31.7982 15.9002C31.7976 15.89 31.7966 15.8799 31.7954 15.8698C31.7915 15.8379 31.7848 15.8068 31.7756 15.776C31.7602 15.7249 31.7335 15.6792 31.6956 15.6403C31.6578 15.6014 31.6073 15.5697 31.5442 15.5459C31.4809 15.5224 31.4025 15.5099 31.3058 15.5099H31.101V15.1396ZM31.2623 16.1686H31.101V15.7165V15.7135H31.2651C31.2858 15.7135 31.3053 15.7142 31.3238 15.7156C31.3521 15.7179 31.3778 15.722 31.4008 15.7277C31.4181 15.7319 31.4339 15.7373 31.4482 15.7435C31.4664 15.7515 31.482 15.7609 31.4952 15.772C31.5101 15.785 31.5226 15.7998 31.5327 15.8167C31.5438 15.8353 31.5522 15.8563 31.5573 15.8795C31.5616 15.8989 31.5638 15.9199 31.5638 15.9425C31.5638 16.0161 31.5415 16.0714 31.4965 16.1103C31.4769 16.1273 31.4509 16.1406 31.4186 16.1502C31.3769 16.1624 31.3247 16.1686 31.2623 16.1686ZM33.7252 16.1961C33.6719 16.2641 33.6017 16.3156 33.5176 16.3502C33.4311 16.3852 33.3388 16.4031 33.2455 16.4028C33.1528 16.4041 33.0606 16.3887 32.9734 16.3572C32.895 16.3288 32.8234 16.2843 32.763 16.2269C32.7401 16.2047 32.7191 16.1808 32.7002 16.1554L32.6848 16.1338C32.6793 16.1256 32.674 16.1173 32.6688 16.1089L32.6618 16.097C32.6571 16.089 32.6527 16.0809 32.6485 16.0726C32.6428 16.0617 32.6374 16.0506 32.6324 16.0392L32.6256 16.0228C32.5922 15.9386 32.5755 15.8486 32.5766 15.758C32.5766 15.668 32.5919 15.5846 32.6242 15.5057C32.655 15.4266 32.6999 15.3587 32.756 15.3017C32.8122 15.2435 32.8794 15.1992 32.9552 15.1645C33.0351 15.1294 33.1217 15.1118 33.2091 15.1131C33.3085 15.1131 33.4012 15.1256 33.4853 15.1505C33.5696 15.1754 33.641 15.2171 33.6999 15.2755L33.5976 15.4489C33.5768 15.43 33.5545 15.4131 33.5309 15.3983C33.5193 15.3909 33.5073 15.3841 33.495 15.3778C33.4854 15.3729 33.4757 15.3683 33.4656 15.3639L33.4469 15.3563L33.4263 15.3488C33.3661 15.3294 33.3031 15.3197 33.2399 15.3198C33.2174 15.3198 33.1952 15.3216 33.1734 15.325C33.1411 15.3302 33.1096 15.3393 33.0785 15.3517C33.0275 15.3722 32.9809 15.4025 32.9412 15.4406C32.9282 15.4533 32.9161 15.4668 32.9049 15.4809L32.8952 15.4938C32.876 15.5203 32.8598 15.549 32.8472 15.5793C32.8234 15.6331 32.8122 15.6929 32.8122 15.7594C32.8122 15.8273 32.8247 15.8883 32.8485 15.9411C32.8724 15.9951 32.9047 16.041 32.9454 16.0797C32.986 16.1186 33.0337 16.1476 33.0884 16.1671C33.1432 16.1865 33.2007 16.1977 33.2624 16.1977C33.3079 16.1977 33.3504 16.1922 33.3902 16.1813C33.4002 16.1785 33.4101 16.1754 33.4197 16.172C33.4355 16.1667 33.4508 16.1603 33.4657 16.1531C33.524 16.125 33.5764 16.0859 33.62 16.0382L33.7252 16.1961ZM33.8402 15.1395H34.9762V15.3587H34.5189V16.3737H34.2973V15.3587H33.8402V15.1395ZM35.2174 15.1398H35.439V15.2853C35.481 15.2352 35.5413 15.1953 35.6186 15.1619C35.6957 15.1286 35.777 15.112 35.8638 15.112C35.8779 15.1116 35.8919 15.112 35.9059 15.1128C35.9341 15.1144 35.9621 15.118 35.9897 15.1235C36.0287 15.1313 36.0669 15.1432 36.1037 15.159C36.1729 15.188 36.2348 15.2321 36.2847 15.2881C36.3355 15.3455 36.3746 15.4124 36.3997 15.4849C36.4127 15.522 36.4226 15.5609 36.4294 15.6017C36.4367 15.645 36.4403 15.6903 36.4403 15.7375C36.4403 15.8302 36.4249 15.9178 36.394 15.9993C36.3632 16.0812 36.3196 16.1505 36.2622 16.2104C36.2038 16.27 36.1343 16.3175 36.0575 16.3504C35.9775 16.3836 35.8891 16.4015 35.791 16.4015C35.725 16.4015 35.6605 16.3947 35.5989 16.3808C35.5372 16.367 35.4839 16.3462 35.439 16.317V16.923H35.2174V15.1398ZM35.7995 15.3185C35.7252 15.3185 35.6565 15.3353 35.5933 15.3686C35.5303 15.4018 35.4783 15.442 35.4392 15.4891V16.1007C35.4894 16.1344 35.5448 16.1598 35.6032 16.1758C35.6565 16.1896 35.7127 16.1964 35.7729 16.1964C35.8349 16.1976 35.8965 16.1857 35.9538 16.1618C36.0052 16.1408 36.0516 16.109 36.0898 16.0688C36.1279 16.0281 36.1571 15.98 36.1755 15.9274C36.1951 15.8719 36.2064 15.8123 36.2064 15.7458C36.2064 15.7318 36.206 15.7179 36.2051 15.7044L36.2032 15.6824L36.2014 15.6668L36.199 15.6507L36.1961 15.6352L36.1922 15.6172C36.1887 15.6024 36.1846 15.5879 36.1797 15.5737C36.1628 15.5211 36.1362 15.4767 36.1012 15.4378C36.066 15.3991 36.024 15.3699 35.9735 15.3491C35.9215 15.3283 35.864 15.3185 35.7995 15.3185ZM37.9185 15.1396H38.1402V16.3738H37.9185V15.1396ZM36.9804 15.1396H36.7587H36.7574V16.3752H37.1598C37.258 16.3752 37.3393 16.3613 37.4067 16.3366C37.474 16.3115 37.5273 16.2783 37.5665 16.2366C37.6059 16.195 37.6353 16.1492 37.6522 16.0965C37.6703 16.0439 37.6787 15.991 37.6787 15.9355C37.6787 15.88 37.6703 15.8275 37.6548 15.776C37.6395 15.7249 37.6129 15.679 37.575 15.6403C37.5372 15.6014 37.4867 15.5695 37.4235 15.5459C37.3603 15.5224 37.2819 15.5099 37.185 15.5099H36.9804V15.1396ZM37.1432 16.1686H36.9818V15.7165V15.7135H37.146C37.2525 15.7135 37.3297 15.7331 37.376 15.772C37.4209 15.8109 37.4446 15.8675 37.4446 15.9425C37.4446 16.0161 37.4222 16.0714 37.3773 16.1102C37.3325 16.1492 37.2539 16.1686 37.1432 16.1686ZM39.2033 15.7345L39.6773 16.3738H39.4053L39.0392 15.8745L38.6675 16.3738H38.4095L38.8807 15.7454L38.4375 15.1395H38.7097L39.0477 15.6055L39.3912 15.1395H39.6493L39.2033 15.7345ZM19.7339 17.8992H19.0537V18.9284H18.832V17.6942H19.9554V18.9284H19.7339V17.8992ZM21.2134 17.9131H20.7759L20.7617 18.1211C20.752 18.2319 20.7402 18.3289 20.7253 18.4126C20.7166 18.4619 20.7068 18.5067 20.6959 18.5469C20.6663 18.6551 20.6299 18.7383 20.5879 18.7965C20.5459 18.8548 20.4967 18.895 20.4405 18.9145C20.3826 18.9355 20.3213 18.9458 20.2597 18.945L20.2428 18.7313C20.2667 18.7326 20.2947 18.7272 20.3255 18.7134C20.3565 18.6995 20.3874 18.6689 20.4167 18.6234C20.4462 18.576 20.4729 18.5094 20.4967 18.4235C20.5205 18.3361 20.536 18.2225 20.5443 18.0794L20.5669 17.6953H21.4351V18.9297H21.2134V17.9131ZM21.8416 17.7786C21.8963 17.744 21.9609 17.7163 22.0325 17.6969C22.1055 17.6767 22.181 17.6665 22.2568 17.6665C22.4335 17.6665 22.5583 17.7106 22.6285 17.7982C22.6999 17.8856 22.7352 18.0104 22.7352 18.1712V18.9284H22.5275V18.7689C22.491 18.8161 22.4405 18.8577 22.3775 18.8937C22.3143 18.9298 22.2317 18.9479 22.1278 18.9479C22.0129 18.9479 21.9202 18.9145 21.8502 18.848C21.8117 18.8117 21.7839 18.7669 21.7664 18.714C21.7521 18.6702 21.745 18.6211 21.745 18.5666C21.7449 18.5578 21.745 18.549 21.7455 18.5402C21.7466 18.5208 21.7491 18.5018 21.7531 18.4831C21.7592 18.4539 21.7686 18.4256 21.7813 18.3986C21.8044 18.3507 21.838 18.3086 21.8795 18.2754C21.9016 18.2571 21.9266 18.2415 21.9543 18.2283C21.9775 18.2173 22.0027 18.208 22.0296 18.2003C22.0885 18.1836 22.1503 18.174 22.2161 18.174C22.2699 18.1746 22.3233 18.1802 22.376 18.1906C22.3962 18.1942 22.4159 18.1994 22.4351 18.206C22.4679 18.2174 22.4989 18.2332 22.5275 18.2529C22.5275 18.1961 22.5247 18.1435 22.5177 18.0949C22.5139 18.0692 22.5086 18.0454 22.5015 18.0237C22.4979 18.0127 22.4938 18.0021 22.4893 17.9922C22.4859 17.985 22.4823 17.978 22.4785 17.9715C22.4588 17.9381 22.4308 17.9105 22.3928 17.8924C22.3682 17.8799 22.3389 17.8712 22.3043 17.8668L22.2873 17.8651C22.2737 17.8639 22.2593 17.8633 22.2441 17.8633C22.1672 17.8633 22.1025 17.8717 22.052 17.8896C22.0373 17.8948 22.0227 17.9004 22.0081 17.9061C21.9723 17.9201 21.9365 17.9357 21.9006 17.9534L21.8416 17.7786ZM22.2065 18.7495C22.2573 18.7495 22.3022 18.743 22.3409 18.7293C22.3642 18.721 22.3852 18.7103 22.4041 18.6966C22.4497 18.6665 22.4912 18.6305 22.5277 18.5898V18.4331C22.4505 18.3778 22.3564 18.3515 22.2471 18.3515C22.2344 18.3515 22.2216 18.352 22.2089 18.3532C22.1887 18.3551 22.1687 18.3587 22.149 18.3638C22.1166 18.3722 22.0873 18.3846 22.0635 18.4014C22.0396 18.418 22.0185 18.4388 22.0032 18.4652C21.9876 18.4915 21.9806 18.5207 21.9806 18.5553C21.9806 18.6134 22.0003 18.6606 22.0396 18.6966C22.0789 18.7314 22.1335 18.7495 22.2065 18.7495ZM22.9539 17.6942H24.0899V17.9132H23.6326V18.9284H23.411V17.9134H22.9539V17.6942ZM25.2251 18.8748C25.1938 18.8911 25.1606 18.9048 25.125 18.9158C25.0408 18.9422 24.9567 18.9562 24.8739 18.9562C24.7798 18.9573 24.6863 18.9419 24.5977 18.9103C24.5149 18.8799 24.4447 18.8367 24.3872 18.7799C24.3297 18.7231 24.2835 18.6551 24.2525 18.5762C24.2217 18.4969 24.2048 18.4084 24.2048 18.3112C24.2041 18.2251 24.2188 18.1396 24.2484 18.0587C24.261 18.0234 24.2769 17.9896 24.296 17.9575C24.3178 17.9207 24.3437 17.8862 24.3732 17.855C24.4301 17.796 24.4984 17.7493 24.5739 17.7176C24.6537 17.6842 24.7449 17.6663 24.8487 17.6663C24.9259 17.6658 25.0025 17.68 25.0745 17.708C25.1433 17.7335 25.2062 17.7728 25.2595 17.8231C25.3123 17.8738 25.3543 17.9347 25.383 18.0019C25.4139 18.0713 25.4294 18.1476 25.4294 18.2321C25.4294 18.289 25.425 18.3377 25.4154 18.3805H24.456C24.4659 18.4971 24.5092 18.5887 24.5892 18.6538C24.6692 18.7189 24.7702 18.7508 24.8922 18.7508C24.9735 18.7508 25.0478 18.7384 25.1137 18.7135C25.1797 18.6885 25.2344 18.658 25.2751 18.6217L25.3424 18.7938C25.3067 18.8257 25.2678 18.8527 25.2251 18.8748ZM24.8376 17.8716C24.7225 17.8716 24.6313 17.9022 24.5627 17.9645C24.4948 18.0257 24.4514 18.1095 24.4407 18.2003H25.198C25.1924 18.0976 25.1587 18.0172 25.0957 17.959C25.0325 17.9022 24.947 17.8716 24.8376 17.8716ZM25.8179 17.6942H25.5373L25.9958 18.289L25.5163 18.9284H25.7883L26.2455 18.2892L25.8179 17.6942ZM26.5219 17.6942H26.3002V18.9284H26.5219V17.6942ZM26.8262 18.289L27.3142 18.9284H27.0394L26.5765 18.289L27.007 17.694H27.2821L26.8262 18.289ZM28.5442 18.7938C28.4825 18.8491 28.411 18.8895 28.3268 18.9158C28.2457 18.9419 28.161 18.9556 28.0758 18.9562C27.9818 18.9573 27.8882 18.9419 27.7996 18.9103C27.7167 18.8799 27.6467 18.8367 27.5892 18.7799C27.5316 18.7231 27.4853 18.6551 27.4545 18.5762C27.4237 18.4969 27.4069 18.4084 27.4069 18.3112C27.406 18.2251 27.4207 18.1396 27.4503 18.0587C27.4773 17.9829 27.5198 17.9134 27.5752 17.855C27.632 17.796 27.7003 17.7493 27.7757 17.7176C27.8557 17.6842 27.9468 17.6663 28.0505 17.6663C28.1278 17.6658 28.2043 17.68 28.2764 17.708C28.3452 17.7335 28.4081 17.7728 28.4615 17.8231C28.5142 17.8738 28.5561 17.9347 28.5849 18.0019C28.6159 18.0713 28.6312 18.1476 28.6312 18.2321C28.6312 18.289 28.627 18.3377 28.6172 18.3805H27.6579C27.6677 18.4971 27.7112 18.5887 27.791 18.6538C27.871 18.7189 27.972 18.7508 28.094 18.7508C28.1754 18.7508 28.2497 18.7384 28.3157 18.7135C28.3815 18.6885 28.4362 18.658 28.4769 18.6217L28.5442 18.7938ZM28.0395 17.8716C27.9246 17.8716 27.8333 17.9022 27.7646 17.9645C27.6966 18.0257 27.6532 18.1095 27.6425 18.2003H28.3999C28.3944 18.0976 28.3607 18.0172 28.2975 17.959C28.2344 17.9022 28.1475 17.8716 28.0395 17.8716ZM29.3766 17.2228C29.4123 17.2606 29.4636 17.2794 29.5303 17.2794C29.6537 17.2794 29.7225 17.2073 29.7323 17.0631H29.9398C29.9398 17.1185 29.93 17.1684 29.9104 17.2156C29.8909 17.2628 29.8627 17.303 29.8277 17.3363C29.812 17.3506 29.7952 17.3639 29.7773 17.376C29.7535 17.3919 29.7274 17.4056 29.6987 17.4167C29.6702 17.4284 29.6398 17.4365 29.6073 17.4416C29.5824 17.4453 29.5563 17.4471 29.5289 17.4471C29.5024 17.4471 29.4772 17.4456 29.4533 17.4427C29.415 17.438 29.38 17.4295 29.3481 17.4167C29.2962 17.396 29.2512 17.3696 29.2162 17.3363C29.1951 17.3162 29.1769 17.2934 29.1619 17.2682C29.152 17.2518 29.1435 17.2342 29.1362 17.2156C29.126 17.1894 29.1186 17.1623 29.1139 17.1338C29.1102 17.1112 29.1082 17.0877 29.1082 17.0631H29.3172C29.3227 17.1336 29.3425 17.1868 29.3766 17.2228ZM29.153 18.9284H28.9314V17.694H29.153V18.6134L29.8738 17.694H30.0955V18.9284H29.8738V18.0088L29.153 18.9284Z" fill="white"/>
</g>
<defs>
<clipPath id="clip0_1474_96988">
<rect width="21.2" height="8.4" fill="white" transform="translate(18.4004 6)"/>
</clipPath>
</defs>
</svg>
