<svg width="20" height="19" viewBox="0 0 20 19" fill="none" xmlns="http://www.w3.org/2000/svg">
<path fill-rule="evenodd" clip-rule="evenodd" d="M18.3377 1.71491L15.3809 16.0061L9.81104 10.4838L13.2378 7.08631L14.0147 6.31601L14.5411 5.79416L14.6377 5.69838C15.0521 5.28754 14.5469 4.62064 14.0392 4.90828L13.9208 4.97534L13.2759 5.34069L12.324 5.88L8.19899 8.21704L7.34579 8.70042L2.40773 6.38131L18.3377 1.71491ZM7.58368 10.4693C7.68713 10.5179 7.78149 10.5839 7.86266 10.6643L14.9797 17.7206C15.5433 18.2794 16.5022 17.9903 16.663 17.213L19.9752 1.20367C20.1281 0.464834 19.4389 -0.170703 18.7149 0.0413979L0.718994 5.31296C-0.164678 5.57182 -0.258446 6.78635 0.57502 7.17778L7.58368 10.4693Z" fill="#E8E9EA"/>
</svg>
