<svg width="16" height="18" viewBox="0 0 16 18" fill="none" xmlns="http://www.w3.org/2000/svg">
<path fill-rule="evenodd" clip-rule="evenodd" d="M4.01207 2.33184C4.21828 0.990305 5.37156 0 6.72767 0H9.2937C10.6498 0 11.8031 0.990306 12.0093 2.33184L12.112 2.99996H13.5013H15.0044L15.0044 3H16.0035V4.5H14.8879L14.0539 15.2326C13.9325 16.7945 12.6308 18 11.0656 18H4.95581C3.39058 18 2.08888 16.7945 1.96751 15.2326L1.1335 4.5H0.0178223V3H1.01693L1.01693 2.99996H2.52012H3.90938L4.01207 2.33184ZM10.5957 2.99996H5.42567L5.49331 2.55993C5.58704 1.95014 6.11126 1.5 6.72767 1.5H9.2937C9.91012 1.5 10.4343 1.95014 10.5281 2.55993L10.5957 2.99996ZM2.63668 4.5L3.46166 15.1163C3.52234 15.8972 4.17319 16.5 4.95581 16.5H11.0656C11.8482 16.5 12.499 15.8972 12.5597 15.1163L13.3847 4.5L2.63668 4.5Z" fill="#A5A8AD"/>
</svg>
