<svg width="20" height="13" viewBox="0 0 20 13" fill="none" xmlns="http://www.w3.org/2000/svg">
<path d="M9.45054 1.5C9.52054 1.5 9.60054 1.5 9.68054 1.5C10.1605 1.51 10.5605 1.54 10.8805 1.62C11.0005 1.65 11.1005 1.69 11.1805 1.74C11.2605 1.79 11.3205 1.86 11.3605 1.95C11.4005 2.04 11.4305 2.14 11.4505 2.23C11.4705 2.33 11.4805 2.46 11.4805 2.63C11.4805 2.8 11.4805 2.96 11.4705 3.12C11.4605 3.27 11.4605 3.48 11.4505 3.74C11.4405 4 11.4405 4.25 11.4405 4.47C11.4405 4.54 11.4405 4.66 11.4305 4.84C11.4205 5.02 11.4205 5.17 11.4305 5.27C11.4305 5.37 11.4405 5.49 11.4605 5.63C11.5105 6.02 11.6705 6.18 11.8605 6.18C12.0505 6.18 12.2705 6.04 12.4805 5.83C12.6005 5.7 12.7605 5.51 12.9405 5.24C13.1205 4.97 13.3205 4.65 13.5405 4.29C13.8905 3.68 14.2105 2.94 14.4905 2.22C14.5705 2.02 14.7605 1.86 15.1105 1.86H17.7505C18.1605 1.86 18.3705 1.91 18.4605 2.13C18.5505 2.35 18.2005 3.45 17.1805 4.81C17.0205 5 16.8305 5.25 16.5905 5.56C16.1305 6.15 15.8605 6.54 15.7905 6.72C15.5405 7.31 16.2705 7.82 16.6305 8.16C16.9005 8.41 18.1405 9.74 18.3705 10.15C18.4805 10.33 18.5405 10.59 18.4905 10.8C18.4405 10.98 18.1905 11.15 17.7505 11.15C17.5505 11.15 17.3405 11.15 17.1105 11.15C16.3605 11.15 15.5105 11.14 15.1105 11.14C14.5605 11.14 14.0705 10.64 13.7205 10.27C13.4805 10.02 13.2805 9.79 13.1105 9.58C12.9405 9.38 12.7605 9.2 12.5705 9.07C12.4305 8.97 12.3105 8.93 12.2005 8.93C11.9805 8.93 11.8005 9.1 11.6605 9.36C11.6005 9.46 11.5505 9.62 11.5105 9.82C11.4705 10.02 11.4505 10.25 11.4505 10.51C11.4505 10.6 11.4405 10.68 11.4205 10.75C11.3505 11.01 11.1105 11.13 10.8505 11.15H9.73054C8.88054 11.15 8.11054 10.96 7.36054 10.53C7.03054 10.34 6.72054 10.14 6.45054 9.94C6.18054 9.74 5.97054 9.57 5.82054 9.43C5.66054 9.3 5.51054 9.14 5.36054 8.97C5.26054 8.85 5.05054 8.58 4.73054 8.16C4.40054 7.75 4.09054 7.3 3.78054 6.83C3.48054 6.35 3.11054 5.73 2.70054 4.96C2.28054 4.19 1.90054 3.31 1.54054 2.48C1.40054 2.09 1.66054 1.85 2.06054 1.85H4.49054C4.73054 1.85 5.00054 2.04 5.09054 2.29C5.48054 3.26 5.95054 4.29 6.50054 5.18C6.66054 5.44 6.80054 5.64 6.93054 5.79C7.05054 5.94 7.18054 6.05 7.30054 6.14C7.43054 6.23 7.53054 6.27 7.63054 6.27C7.92054 6.27 8.06054 5.91 8.11054 5.57C8.24054 4.76 8.28054 3.9 8.11054 3.1C8.00054 2.56 7.76054 2.28 7.18054 2.19C7.10054 2.18 7.12054 2.11 7.22054 1.98C7.32054 1.87 7.43054 1.78 7.56054 1.71C7.85054 1.57 8.48054 1.5 9.45054 1.5ZM9.45054 0C8.19054 0 7.43054 0.11 6.90054 0.37C6.58054 0.53 6.33054 0.73 6.11054 0.98L6.09054 1L6.06054 1.03C6.06054 1.04 6.05054 1.04 6.05054 1.05C5.65054 0.62 5.08054 0.35 4.49054 0.35H2.06054C1.34054 0.35 0.710537 0.66 0.330537 1.2C-0.0294628 1.72 -0.0994628 2.38 0.140537 3L0.150537 3.03L0.160537 3.06C0.530537 3.92 0.930537 4.83 1.38054 5.67C1.82054 6.49 2.20054 7.14 2.53054 7.65C2.86054 8.15 3.19054 8.63 3.53054 9.08C3.98054 9.67 4.14054 9.87 4.23054 9.97C4.42054 10.19 4.62054 10.38 4.79054 10.54C4.97054 10.72 5.23054 10.94 5.58054 11.18C5.89054 11.41 6.24054 11.63 6.62054 11.85C7.58054 12.4 8.59054 12.67 9.73054 12.67H10.8405H10.9005L10.9605 12.66C11.7805 12.59 12.4405 12.14 12.7405 11.46C13.1905 11.93 13.9805 12.66 15.0905 12.66C15.2605 12.66 15.5005 12.66 15.7805 12.66C16.1805 12.66 16.6505 12.67 17.0905 12.67C17.3205 12.67 17.5505 12.67 17.7505 12.67C18.8205 12.67 19.6805 12.09 19.9205 11.2C20.0805 10.62 19.9705 9.95 19.6505 9.41C19.2205 8.66 17.6705 7.1 17.6505 7.09C17.5905 7.03 17.5205 6.97 17.4405 6.9C17.5205 6.79 17.6205 6.66 17.7505 6.49C18.0005 6.16 18.2005 5.91 18.3405 5.71C18.9505 4.9 20.3205 2.87 19.8205 1.59C19.5005 0.77 18.7905 0.36 17.7105 0.36H15.0705C14.1505 0.36 13.3805 0.86 13.0605 1.67C13.0105 1.81 12.9605 1.93 12.9105 2.06C12.9005 2.02 12.9005 1.97 12.8905 1.93C12.8505 1.73 12.7805 1.53 12.7005 1.34C12.5405 0.98 12.2805 0.68 11.9505 0.47C11.7405 0.33 11.4905 0.23 11.2205 0.16C10.7905 0.06 10.3005 0.01 9.70054 0H9.45054Z" fill="#E8E9EA"/>
</svg>
