<svg width="20" height="16" viewBox="0 0 20 16" fill="none" xmlns="http://www.w3.org/2000/svg">
<path fill-rule="evenodd" clip-rule="evenodd" d="M1.87248 12.9712C1.37584 9.67594 1.37584 6.32406 1.87248 3.02877C1.95783 2.46245 2.40301 2.03169 2.95142 1.96034C7.66916 1.34655 12.3308 1.34655 17.0486 1.96034C17.597 2.03169 18.0422 2.46245 18.1275 3.02877C18.6242 6.32406 18.6242 9.67594 18.1275 12.9712C18.0422 13.5376 17.597 13.9683 17.0486 14.0397C12.3308 14.6534 7.66916 14.6534 2.95142 14.0397C2.40301 13.9683 1.95783 13.5376 1.87248 12.9712ZM17.2421 15.5271C12.3959 16.1576 7.60411 16.1576 2.7579 15.5271C1.53983 15.3686 0.57344 14.4171 0.389226 13.1948C-0.129742 9.75129 -0.129742 6.24871 0.389226 2.80523C0.57344 1.58293 1.53983 0.631353 2.7579 0.472879C7.60411 -0.157626 12.3959 -0.157627 17.2421 0.472879C18.4602 0.631353 19.4266 1.58293 19.6108 2.80523C20.1297 6.24871 20.1297 9.75129 19.6108 13.1948C19.4266 14.4171 18.4602 15.3686 17.2421 15.5271ZM8.63499 4.35635C8.40326 4.21774 8.11491 4.2144 7.88003 4.3476C7.64515 4.4808 7.5 4.72998 7.5 5V11C7.5 11.27 7.64515 11.5192 7.88003 11.6524C8.11491 11.7856 8.40326 11.7823 8.63499 11.6437L13.6506 8.64365C13.877 8.50823 14.0156 8.26381 14.0156 8C14.0156 7.73619 13.877 7.49177 13.6506 7.35635L8.63499 4.35635ZM9 9.67748V6.32252L11.8045 8L9 9.67748Z" fill="#E8E9EA"/>
</svg>
